<?xml version="1.0" standalone="no"?>
<!DOCTYPE svg PUBLIC "-//W3C//DTD SVG 20010904//EN"
 "http://www.w3.org/TR/2001/REC-SVG-20010904/DTD/svg10.dtd">
<svg version="1.0" xmlns="http://www.w3.org/2000/svg"
 width="200.000000pt" height="200.000000pt" viewBox="0 0 200.000000 200.000000"
 preserveAspectRatio="xMidYMid meet">

<g transform="translate(0.000000,200.000000) scale(0.100000,-0.100000)"
fill="#000000" stroke="none">
<path d="M0 1000 l0 -1000 1000 0 1000 0 0 1000 0 1000 -1000 0 -1000 0 0
-1000z m935 614 c24 -9 45 -58 45 -102 0 -51 -31 -92 -70 -92 -67 0 -98 123
-45 175 25 26 41 30 70 19z m224 -19 c34 -17 41 -33 41 -89 0 -118 -140 -180
-186 -82 -24 49 -12 101 36 148 41 41 65 46 109 23z m-374 -49 c35 -35 43 -91
18 -124 -28 -37 -48 -38 -83 -4 -37 38 -42 100 -10 132 26 26 46 25 75 -4z
m-121 -117 c42 -50 30 -99 -24 -99 -50 0 -92 77 -65 120 13 22 63 10 89 -21z
m624 -11 c30 -30 -4 -77 -41 -57 -29 17 -15 69 18 69 6 0 16 -5 23 -12z m-273
-67 c42 -19 125 -95 125 -115 0 -6 -4 -28 -9 -48 -8 -36 -8 -36 16 -27 13 5
52 9 86 9 79 0 133 -29 165 -88 14 -26 37 -48 59 -58 92 -44 120 -179 53 -264
l-20 -25 12 32 c13 36 -1 63 -32 63 -26 0 -46 -28 -31 -43 9 -9 14 -9 21 3 5
8 12 12 15 8 3 -3 -7 -26 -22 -51 -25 -41 -33 -46 -76 -52 -26 -4 -76 -6 -110
-5 -34 2 -81 2 -104 1 l-43 -1 0 -46 c0 -57 -35 -97 -101 -114 -126 -34 -239
39 -320 206 -74 153 -94 319 -53 445 46 143 236 231 369 170z m414 -41 c27
-33 30 -43 21 -60 -10 -18 -19 -21 -68 -18 -54 3 -57 4 -60 31 -2 18 2 29 12
33 9 3 16 12 16 20 0 12 26 33 41 34 3 0 20 -18 38 -40z m-831 4 c28 -19 27
-67 -1 -72 -27 -5 -67 25 -67 52 0 40 28 48 68 20z"/>
<path d="M1054 976 c-43 -19 -64 -53 -64 -104 0 -37 6 -50 34 -78 27 -27 42
-34 74 -34 44 0 90 29 78 49 -6 9 -13 8 -32 -3 -34 -23 -71 -20 -99 9 -32 31
-32 75 -2 110 23 28 53 34 100 21 21 -6 27 -5 27 7 0 10 -15 20 -37 26 -46 13
-41 13 -79 -3z"/>
<path d="M1270 979 c-120 -48 -92 -219 35 -219 130 0 155 173 32 219 -33 13
-34 13 -67 0z m99 -53 c6 -7 14 -27 17 -44 5 -26 1 -36 -24 -62 -39 -39 -74
-39 -113 -1 -31 32 -34 45 -19 86 19 50 105 63 139 21z"/>
</g>
</svg>
